<svg width="20" height="22" viewBox="0 0 20 22" fill="none" xmlns="http://www.w3.org/2000/svg">
<path fill-rule="evenodd" clip-rule="evenodd" d="M9.75782 1.5C9.16108 1.5 8.58879 1.73705 8.16683 2.15901C7.74488 2.58097 7.50782 3.15326 7.50782 3.75V4.01C8.06482 4 8.67582 4 9.34782 4H10.1688C10.8388 4 11.4508 4 12.0088 4.01V3.75C12.0088 3.45444 11.9506 3.16178 11.8375 2.88873C11.7243 2.61568 11.5585 2.3676 11.3495 2.15866C11.1404 1.94971 10.8923 1.784 10.6192 1.67098C10.3461 1.55797 10.0534 1.49987 9.75782 1.5ZM13.5078 4.078V3.75C13.5078 2.75544 13.1127 1.80161 12.4095 1.09835C11.7062 0.395088 10.7524 0 9.75782 0C8.76326 0 7.80943 0.395088 7.10617 1.09835C6.40291 1.80161 6.00782 2.75544 6.00782 3.75V4.078C5.86516 4.09 5.72716 4.10433 5.59382 4.121C4.58382 4.246 3.75182 4.508 3.04382 5.095C2.33582 5.682 1.92582 6.452 1.61782 7.422C1.31782 8.362 1.09182 9.569 0.807822 11.088L0.786822 11.198C0.384822 13.341 0.0688224 15.03 0.00982244 16.361C-0.0501776 17.726 0.153822 18.856 0.923822 19.783C1.69382 20.711 2.76682 21.119 4.11882 21.312C5.43882 21.5 7.15582 21.5 9.33682 21.5H10.1818C12.3618 21.5 14.0798 21.5 15.3988 21.312C16.7508 21.119 17.8248 20.711 18.5948 19.783C19.3648 18.855 19.5668 17.726 19.5078 16.361C19.4498 15.03 19.1328 13.341 18.7308 11.198L18.7108 11.088C18.4258 9.569 18.1988 8.361 17.9008 7.422C17.5908 6.452 17.1808 5.682 16.4728 5.095C15.7658 4.508 14.9328 4.245 13.9228 4.121C13.7851 4.10406 13.6471 4.08972 13.5088 4.078M5.77782 5.61C4.92282 5.715 4.40582 5.914 4.00182 6.25C3.59882 6.584 3.30782 7.055 3.04582 7.877C2.77882 8.717 2.56782 9.835 2.27182 11.414C1.85582 13.631 1.56082 15.214 1.50782 16.427C1.45582 17.617 1.64782 18.307 2.07682 18.826C2.50682 19.343 3.14982 19.658 4.32982 19.826C5.52982 19.998 7.14182 20 9.39782 20H10.1178C12.3748 20 13.9848 19.998 15.1858 19.827C16.3658 19.658 17.0088 19.343 17.4388 18.826C17.8688 18.308 18.0598 17.618 18.0088 16.426C17.9548 15.215 17.6598 13.631 17.2438 11.414C16.9478 9.834 16.7378 8.718 16.4698 7.877C16.2078 7.055 15.9178 6.584 15.5138 6.249C15.1098 5.914 14.5938 5.715 13.7378 5.609C12.8618 5.501 11.7248 5.5 10.1178 5.5H9.39782C7.79082 5.5 6.65382 5.501 5.77782 5.61Z" fill="#424242"/>
</svg>
